<svg width="24" height="24" viewBox="0 0 24 24" fill="none" xmlns="http://www.w3.org/2000/svg">
<path d="M7.5 17H9V18.5H7.5V17ZM7.5 13.25H9V14.75H7.5V13.25ZM16.5 13.25H18V14.75H16.5V13.25ZM7.5 9.5H9V11H7.5V9.5ZM12 17H13.5V18.5H12V17ZM12 13.25H13.5V14.75H12V13.25ZM12 9.5H13.5V11H12V9.5ZM16.5 9.5H18V11H16.5V9.5ZM7.5 5H18V7.25H7.5V5Z" fill="#536669"/>
<path d="M19.5 24C17.2908 24 15.5 22.2092 15.5 20C15.5 17.7908 17.2908 16 19.5 16C21.7092 16 23.5 17.7908 23.5 20C23.5 22.2092 21.7092 24 19.5 24ZM19.5 23.2C20.3487 23.2 21.1626 22.8629 21.7627 22.2627C22.3629 21.6626 22.7 20.8487 22.7 20C22.7 19.1513 22.3629 18.3374 21.7627 17.7373C21.1626 17.1371 20.3487 16.8 19.5 16.8C18.6513 16.8 17.8374 17.1371 17.2373 17.7373C16.6371 18.3374 16.3 19.1513 16.3 20C16.3 20.8487 16.6371 21.6626 17.2373 22.2627C17.8374 22.8629 18.6513 23.2 19.5 23.2ZM18.1 20.8H20.3C20.353 20.8 20.4039 20.7789 20.4414 20.7414C20.4789 20.7039 20.5 20.653 20.5 20.6C20.5 20.547 20.4789 20.4961 20.4414 20.4586C20.4039 20.4211 20.353 20.4 20.3 20.4H18.7C18.4348 20.4 18.1804 20.2946 17.9929 20.1071C17.8054 19.9196 17.7 19.6652 17.7 19.4C17.7 19.1348 17.8054 18.8804 17.9929 18.6929C18.1804 18.5054 18.4348 18.4 18.7 18.4H19.1V17.6H19.9V18.4H20.9V19.2H18.7C18.647 19.2 18.5961 19.2211 18.5586 19.2586C18.5211 19.2961 18.5 19.347 18.5 19.4C18.5 19.453 18.5211 19.5039 18.5586 19.5414C18.5961 19.5789 18.647 19.6 18.7 19.6H20.3C20.5652 19.6 20.8196 19.7054 21.0071 19.8929C21.1946 20.0804 21.3 20.3348 21.3 20.6C21.3 20.8652 21.1946 21.1196 21.0071 21.3071C20.8196 21.4946 20.5652 21.6 20.3 21.6H19.9V22.4H19.1V21.6H18.1V20.8Z" fill="#536669"/>
<path d="M20 14.5C20 13.0118 20 7.13488 20 3.99799C20 2.89342 19.1046 2 18 2H7C5.89543 2 5 2.89543 5 4V18.5C5 19.6046 5.89543 20.5 7 20.5H15.5" stroke="#536669" stroke-width="1.5"/>
</svg>
