<svg width="24" height="24" viewBox="0 0 24 24" fill="none" xmlns="http://www.w3.org/2000/svg">
<path d="M22.4887 11.8725C22.0672 9.53164 20.8836 7.39579 19.1223 5.79736C17.361 4.19893 15.1206 3.22759 12.75 3.0345V1.5H11.25V3.0345C8.87931 3.22759 6.63898 4.19893 4.87764 5.79736C3.1163 7.39579 1.93276 9.53164 1.51122 11.8725C1.48695 12.0136 1.50358 12.1588 1.55916 12.2907C1.61474 12.4227 1.70694 12.536 1.82486 12.6172C1.94278 12.6985 2.08149 12.7443 2.22461 12.7492C2.36772 12.7541 2.50925 12.718 2.63247 12.645C3.18363 12.262 3.82992 12.0388 4.49997 12C5.13682 12.0154 5.75853 12.1973 6.30327 12.5276C6.84801 12.8578 7.29679 13.325 7.60497 13.8825C7.6765 13.9877 7.77266 14.0738 7.88508 14.1333C7.9975 14.1928 8.12277 14.2239 8.24997 14.2239C8.37717 14.2239 8.50244 14.1928 8.61486 14.1333C8.72728 14.0738 8.82344 13.9877 8.89497 13.8825C9.14653 13.441 9.48487 13.0549 9.8896 12.7476C10.2943 12.4404 10.7571 12.2182 11.25 12.0945V19.125C11.25 19.6223 11.0524 20.0992 10.7008 20.4508C10.3492 20.8025 9.87225 21 9.37497 21C8.87769 21 8.40078 20.8025 8.04915 20.4508C7.69751 20.0992 7.49997 19.6223 7.49997 19.125V18.75H5.99997V19.125C5.99997 20.0201 6.35555 20.8785 6.98849 21.5115C7.62142 22.1444 8.47987 22.5 9.37497 22.5C10.2701 22.5 11.1285 22.1444 11.7615 21.5115C12.3944 20.8785 12.75 20.0201 12.75 19.125V12.0938C13.243 12.2176 13.7058 12.44 14.1106 12.7476C14.5153 13.0551 14.8536 13.4414 15.105 13.8832C15.1714 13.9952 15.2658 14.0879 15.3789 14.1523C15.4919 14.2167 15.6198 14.2505 15.75 14.2505C15.8801 14.2505 16.008 14.2167 16.1211 14.1523C16.2342 14.0879 16.3286 13.9952 16.395 13.8832C16.7031 13.3256 17.1518 12.8583 17.6965 12.5279C18.2413 12.1975 18.863 12.0155 19.5 12C20.17 12.0388 20.8163 12.262 21.3675 12.645C21.4907 12.7182 21.6323 12.7545 21.7756 12.7497C21.9188 12.7449 22.0577 12.6991 22.1757 12.6179C22.2938 12.5366 22.3861 12.4232 22.4417 12.2911C22.4973 12.159 22.5131 12.0137 22.4887 11.8725ZM4.49997 10.5C4.11858 10.5 3.73909 10.5538 3.37272 10.6598C3.88185 9.2416 4.72685 7.96784 5.83546 6.94739C6.94408 5.92694 8.28333 5.19014 9.73872 4.8C8.25204 6.71664 7.44802 9.07487 7.45422 11.5005C6.60446 10.8546 5.56731 10.5034 4.49997 10.5ZM12 10.5C10.8942 10.5051 9.82244 10.883 8.95797 11.5725C8.98572 9.9075 9.41397 6.705 12 4.6905C14.5725 6.69825 15.0067 9.903 15.039 11.5703C14.175 10.8822 13.1045 10.5051 12 10.5ZM19.5 10.5C18.4327 10.5032 17.3956 10.8542 16.5457 11.4998C16.5519 9.07412 15.7479 6.71589 14.2612 4.79925C15.7167 5.18946 17.056 5.92637 18.1646 6.94696C19.2732 7.96755 20.1182 9.24146 20.6272 10.6598C20.2608 10.5538 19.8814 10.5 19.5 10.5Z" fill="#536669"/>
</svg>
