<svg width="32" height="32" viewBox="0 0 32 32" fill="none" xmlns="http://www.w3.org/2000/svg">
<path d="M13.4413 5.45232C14.148 5.94032 14.824 6.26165 15.38 6.33232C15.0753 6.93697 14.864 7.58433 14.7533 8.25232C13.8573 8.05366 13.0053 7.58032 12.3053 7.09765C11.97 6.86528 11.6457 6.61746 11.3333 6.35499V9.33365C11.3331 9.53298 11.2734 9.7277 11.1617 9.89281C11.05 10.0579 10.8916 10.1859 10.7067 10.2603L10.6987 10.2643C10.6237 10.2945 10.5499 10.3274 10.4773 10.363C10.3213 10.4363 10.0947 10.5497 9.82933 10.7017C9.1772 11.0682 8.57568 11.5182 8.04 12.0403C7.436 12.6443 7.06266 13.4577 6.85333 14.0883C6.58266 14.8963 5.89466 15.6417 4.916 15.8057C4.84652 15.8173 4.78339 15.8531 4.73776 15.9068C4.69214 15.9605 4.66695 16.0285 4.66666 16.099V18.4377C4.66666 18.6577 4.82666 18.8457 5.044 18.8817C5.876 19.0203 6.53066 19.5643 6.9 20.223C7.39083 21.1019 7.99859 21.9101 8.70666 22.6257C9.31535 23.2192 10.0329 23.6896 10.82 24.011C11.1548 24.1503 11.4998 24.2635 11.852 24.3497L11.8587 24.3523C12.0862 24.3968 12.2913 24.5191 12.4387 24.6981C12.586 24.8771 12.6666 25.1018 12.6667 25.3337V27.0003C12.6667 27.1843 12.816 27.3337 13 27.3337H14.6667C14.6667 26.8032 14.8774 26.2945 15.2524 25.9194C15.6275 25.5444 16.1362 25.3337 16.6667 25.3337H19.3333C19.8638 25.3337 20.3725 25.5444 20.7475 25.9194C21.1226 26.2945 21.3333 26.8032 21.3333 27.3337H23C23.0884 27.3337 23.1732 27.2985 23.2357 27.236C23.2982 27.1735 23.3333 27.0887 23.3333 27.0003V24.0003C23.3333 23.623 23.5467 23.2777 23.8827 23.107L23.9 23.0977C24.0627 23.005 24.2203 22.9035 24.372 22.7937C24.696 22.559 25.1347 22.195 25.5747 21.6817C26.444 20.6683 27.3333 19.059 27.3333 16.667C27.3333 15.3243 27.0827 14.2403 26.6547 13.3497C27.1308 12.7176 27.491 12.0062 27.7187 11.2483C27.852 11.4297 27.9773 11.6177 28.0947 11.8123C28.9 13.1443 29.3333 14.751 29.3333 16.6657C29.3333 19.6083 28.2227 21.6657 27.0933 22.9843C26.5786 23.5848 25.9868 24.1147 25.3333 24.5603V26.999C25.3335 27.3055 25.2733 27.6091 25.1561 27.8923C25.0389 28.1756 24.8671 28.433 24.6504 28.6498C24.4337 28.8666 24.1764 29.0386 23.8932 29.1559C23.6101 29.2733 23.3065 29.3337 23 29.3337H21.3333C20.8029 29.3337 20.2942 29.1229 19.9191 28.7479C19.544 28.3728 19.3333 27.8641 19.3333 27.3337H16.6667C16.6667 27.8641 16.4559 28.3728 16.0809 28.7479C15.7058 29.1229 15.1971 29.3337 14.6667 29.3337H13C12.3812 29.3337 11.7877 29.0878 11.3501 28.6502C10.9125 28.2127 10.6667 27.6192 10.6667 27.0003V26.0897C10.4577 26.0192 10.2514 25.9414 10.048 25.8563C9.02128 25.4342 8.08589 24.8176 7.29333 24.0403C6.45461 23.1945 5.73469 22.2386 5.15333 21.199C5.11011 21.1128 5.04837 21.0373 4.97253 20.9779C4.89669 20.9184 4.80863 20.8764 4.71466 20.855C4.1424 20.7597 3.62252 20.4644 3.2475 20.0218C2.87249 19.5791 2.66667 19.0178 2.66666 18.4377V16.1003C2.66666 14.9763 3.48 14.0177 4.58666 13.8337C4.70266 13.8137 4.87466 13.6977 4.956 13.455C5.212 12.6857 5.70933 11.543 6.62666 10.6257C7.28779 9.97765 8.03101 9.41911 8.83733 8.96432C9.01866 8.86032 9.18666 8.77099 9.33333 8.69765V4.89365C9.33333 3.64299 10.84 3.12965 11.6533 3.93899C12.0933 4.37765 12.7333 4.96165 13.4413 5.45099V5.45232ZM17.4267 11.7977C16.7733 11.527 16.2213 11.0123 16.0907 10.3177C15.853 9.02339 16.102 7.68696 16.7897 6.56509C17.4775 5.44323 18.5555 4.61506 19.8168 4.23969C21.078 3.86431 22.4334 3.96821 23.6227 4.53141C24.812 5.09462 25.7512 6.07741 26.26 7.29099C26.7289 8.42191 26.7945 9.67969 26.4459 10.8533C26.0973 12.0268 25.3556 13.0448 24.3453 13.7363C23.7613 14.135 23.008 14.1083 22.3547 13.8377L17.4267 11.7977ZM23.2853 12.0377C23.9439 11.5575 24.4039 10.853 24.5786 10.0569C24.7532 9.2609 24.6305 8.42846 24.2334 7.71674C23.8364 7.00502 23.1925 6.46326 22.4234 6.19372C21.6543 5.92417 20.8131 5.94549 20.0587 6.25365C19.3653 6.54084 18.789 7.05345 18.4229 7.70863C18.0569 8.36381 17.9224 9.12329 18.0413 9.86432L18.0693 9.88565C18.1081 9.91091 18.1491 9.93234 18.192 9.94965L23.12 11.9897C23.173 12.0118 23.2285 12.0288 23.2853 12.0377ZM12 13.3337C12 13.6873 11.8595 14.0264 11.6095 14.2765C11.3594 14.5265 11.0203 14.667 10.6667 14.667C10.313 14.667 9.9739 14.5265 9.72385 14.2765C9.47381 14.0264 9.33333 13.6873 9.33333 13.3337C9.33333 12.98 9.47381 12.6409 9.72385 12.3908C9.9739 12.1408 10.313 12.0003 10.6667 12.0003C11.0203 12.0003 11.3594 12.1408 11.6095 12.3908C11.8595 12.6409 12 12.98 12 13.3337Z" fill="black"/>
</svg>
