<svg width="24" height="24" viewBox="0 0 24 24" fill="none" xmlns="http://www.w3.org/2000/svg">
<path d="M7.18503 1.93804L6.88503 5.74054C6.87003 5.92804 7.02003 6.09304 7.20753 6.09304L11.025 6.07054C11.3175 6.06304 11.4675 5.72554 11.2725 5.51554L10.38 4.55554C10.3588 4.53467 10.3422 4.50955 10.3314 4.48183C10.3205 4.45411 10.3157 4.42441 10.3171 4.39468C10.3185 4.36495 10.3262 4.33585 10.3396 4.30929C10.353 4.28273 10.3719 4.2593 10.395 4.24054C10.92 3.82804 11.6025 3.58054 12.3225 3.61054C13.6725 3.66304 14.775 4.70554 15.0525 5.96554C15.0675 6.03304 15.1275 6.08554 15.2025 6.08554H17.025C17.1225 6.08554 17.1975 5.99554 17.1825 5.90554C16.8525 3.53554 14.8725 1.59304 12.3975 1.50304C11.085 1.45804 9.86253 1.91554 8.94003 2.71054C8.85003 2.78554 8.72253 2.77804 8.64003 2.69554L7.75503 1.74304C7.71174 1.69613 7.65575 1.66281 7.59387 1.64714C7.53199 1.63148 7.46688 1.63414 7.40649 1.6548C7.34609 1.67546 7.293 1.71324 7.25369 1.76352C7.21437 1.81381 7.19051 1.87444 7.18503 1.93804ZM16.749 22.155L17.049 18.3525C17.0519 18.308 17.0457 18.2634 17.0309 18.2213C17.0161 18.1792 16.9929 18.1406 16.9628 18.1077C16.9327 18.0748 16.8962 18.0483 16.8556 18.0298C16.815 18.0113 16.7711 18.0012 16.7265 18L12.909 18.0225C12.6165 18.03 12.4665 18.3675 12.6615 18.5775L13.554 19.5375C13.644 19.6275 13.6365 19.7775 13.539 19.8525C13.014 20.265 12.3315 20.5125 11.6115 20.4825C10.2615 20.43 9.15903 19.3875 8.88153 18.1275C8.87399 18.0934 8.855 18.0629 8.82771 18.0411C8.80042 18.0192 8.76648 18.0074 8.73153 18.0075H6.90903C6.81903 18.0075 6.73653 18.09 6.75153 18.1875C7.08153 20.5575 9.06153 22.5 11.5365 22.59C12.849 22.635 14.0715 22.1775 14.994 21.3825C15.084 21.3075 15.2115 21.315 15.294 21.3975L16.179 22.35C16.374 22.56 16.7265 22.44 16.749 22.155Z" fill="#536669"/>
<path d="M3.75 6.75C3.75 6.55109 3.82902 6.36032 3.96967 6.21967C4.11032 6.07902 4.30109 6 4.5 6C4.69891 6 4.88968 6.07902 5.03033 6.21967C5.17098 6.36032 5.25 6.55109 5.25 6.75V7.596C6.08475 7.797 6.61725 8.28825 6.9285 8.82C7.15636 9.21439 7.28985 9.65617 7.3185 10.1107L7.31925 10.122V10.1288L6.57 10.1475L7.32 10.1295C7.32577 10.3284 7.25228 10.5215 7.11571 10.6662C6.97914 10.8109 6.79066 10.8955 6.59175 10.9012C6.49326 10.9041 6.39517 10.8875 6.30308 10.8525C6.21099 10.8174 6.12671 10.7646 6.05505 10.697C5.91032 10.5604 5.82577 10.3719 5.82 10.173V10.1722C5.8152 10.1163 5.80694 10.0607 5.79525 10.0057C5.76446 9.85538 5.71004 9.71084 5.634 9.5775C5.4855 9.324 5.1825 9 4.395 9C3.5385 9 3.267 9.2925 3.159 9.465C3.01125 9.7005 3 9.98475 3 10.1475C3 10.3027 3.0135 10.554 3.153 10.761C3.25575 10.9132 3.5325 11.1975 4.41 11.1975C5.71875 11.1975 6.51525 11.7495 6.9345 12.4583C7.3155 13.1033 7.32 13.7707 7.32 13.935C7.32 14.2275 7.1925 14.82 6.77475 15.354C6.4425 15.7785 5.94525 16.14 5.25 16.3027V17.25C5.25 17.4489 5.17098 17.6397 5.03033 17.7803C4.88968 17.921 4.69891 18 4.5 18C4.30109 18 4.11032 17.921 3.96967 17.7803C3.82902 17.6397 3.75 17.4489 3.75 17.25V16.332C3.05275 16.1979 2.43452 15.799 2.025 15.219C1.7854 14.8811 1.61395 14.4997 1.52025 14.0963C1.51841 14.0873 1.51666 14.0783 1.515 14.0693L1.51275 14.0588V14.055L1.512 14.0535V14.0527C1.47874 13.8582 1.52348 13.6577 1.63652 13.496C1.74956 13.3342 1.92179 13.2235 2.11588 13.1879C2.30998 13.1523 2.51029 13.1946 2.6734 13.3057C2.83651 13.4167 2.94927 13.5876 2.98725 13.7812C2.99965 13.8336 3.01493 13.8859 3.033 13.9365C3.07425 14.0513 3.14175 14.2005 3.24525 14.346C3.4365 14.6138 3.7635 14.895 4.41 14.895C5.1105 14.895 5.43075 14.637 5.59425 14.4285C5.763 14.2125 5.808 13.9905 5.81775 13.9432C5.81925 13.9342 5.82 13.932 5.82 13.935C5.82 13.83 5.8095 13.5037 5.643 13.2217C5.5155 13.0042 5.2305 12.6975 4.41 12.6975C3.68475 12.6975 3.11025 12.5505 2.6685 12.2985C2.36464 12.1276 2.10477 11.8883 1.9095 11.5995C1.5015 10.995 1.5 10.3462 1.5 10.1475V10.1422C1.5 9.94575 1.5 9.28725 1.8885 8.66775C2.2425 8.103 2.844 7.68 3.75 7.545V6.75ZM17.9715 8.16525C17.927 8.07628 17.8652 7.99706 17.7898 7.9322C17.7143 7.86733 17.6267 7.81813 17.5321 7.78744C17.4375 7.75676 17.3377 7.74521 17.2385 7.75347C17.1394 7.76173 17.0429 7.78963 16.9546 7.83555C16.8664 7.88147 16.7881 7.94449 16.7245 8.02094C16.6608 8.09738 16.613 8.18574 16.5838 8.28085C16.5546 8.37595 16.5446 8.47592 16.5545 8.57492C16.5643 8.67392 16.5937 8.76998 16.641 8.8575L18.6667 12.75H17.25C17.0511 12.75 16.8603 12.829 16.7197 12.9697C16.579 13.1103 16.5 13.3011 16.5 13.5C16.5 13.6989 16.579 13.8897 16.7197 14.0303C16.8603 14.171 17.0511 14.25 17.25 14.25H18.75V15H17.25C17.0511 15 16.8603 15.079 16.7197 15.2197C16.579 15.3603 16.5 15.5511 16.5 15.75C16.5 15.9489 16.579 16.1397 16.7197 16.2803C16.8603 16.421 17.0511 16.5 17.25 16.5H18.75V17.25C18.75 17.4489 18.829 17.6397 18.9697 17.7803C19.1103 17.921 19.3011 18 19.5 18C19.6989 18 19.8897 17.921 20.0303 17.7803C20.171 17.6397 20.25 17.4489 20.25 17.25V16.5H21.75C21.9489 16.5 22.1397 16.421 22.2803 16.2803C22.421 16.1397 22.5 15.9489 22.5 15.75C22.5 15.5511 22.421 15.3603 22.2803 15.2197C22.1397 15.079 21.9489 15 21.75 15H20.25V14.25H21.75C21.9489 14.25 22.1397 14.171 22.2803 14.0303C22.421 13.8897 22.5 13.6989 22.5 13.5C22.5 13.3011 22.421 13.1103 22.2803 12.9697C22.1397 12.829 21.9489 12.75 21.75 12.75H20.3325L22.359 8.8575C22.4471 8.68145 22.4624 8.47782 22.4017 8.29055C22.341 8.10329 22.2091 7.9474 22.0345 7.85654C21.8598 7.76567 21.6565 7.74712 21.4683 7.80487C21.2801 7.86263 21.1221 7.99207 21.0285 8.16525L19.5 11.1015L17.9715 8.16525Z" fill="#536669"/>
</svg>
