<svg width="33" height="33" viewBox="0 0 33 33" fill="none" xmlns="http://www.w3.org/2000/svg">
<path d="M26.8125 4.8125L24.75 2.75L22.6875 4.8125L20.625 2.75L18.5625 4.8125L16.5 2.75L14.4375 4.8125L12.375 2.75L10.3125 4.8125L8.25 2.75V22H4.125V26.125C4.125 28.4075 5.9675 30.25 8.25 30.25H24.75C27.0325 30.25 28.875 28.4075 28.875 26.125V2.75L26.8125 4.8125ZM20.625 27.5H8.25C7.49375 27.5 6.875 26.8813 6.875 26.125V24.75H20.625V27.5ZM26.125 26.125C26.125 26.8813 25.5063 27.5 24.75 27.5C23.9937 27.5 23.375 26.8813 23.375 26.125V22H11V6.875H26.125V26.125Z" fill="black"/>
<path d="M12.375 9.625H20.625V12.375H12.375V9.625ZM22 9.625H24.75V12.375H22V9.625ZM12.375 13.75H20.625V16.5H12.375V13.75ZM22 13.75H24.75V16.5H22V13.75Z" fill="black"/>
</svg>
