<svg width="24" height="24" viewBox="0 0 24 24" fill="none" xmlns="http://www.w3.org/2000/svg">
<path d="M20 12V21.4C20 21.4788 19.9845 21.5568 19.9543 21.6296C19.9242 21.7024 19.88 21.7685 19.8243 21.8243C19.7685 21.88 19.7024 21.9242 19.6296 21.9543C19.5568 21.9845 19.4788 22 19.4 22H4.6C4.52121 22 4.44319 21.9845 4.37039 21.9543C4.29759 21.9242 4.23145 21.88 4.17574 21.8243C4.12002 21.7685 4.07583 21.7024 4.04567 21.6296C4.01552 21.5568 4 21.4788 4 21.4V12M12 22V7M12 7H7.5C6.83696 7 6.20107 6.73661 5.73223 6.26777C5.26339 5.79893 5 5.16304 5 4.5C5 3.83696 5.26339 3.20107 5.73223 2.73223C6.20107 2.26339 6.83696 2 7.5 2C11 2 12 7 12 7ZM12 7H16.5C17.163 7 17.7989 6.73661 18.2678 6.26777C18.7366 5.79893 19 5.16304 19 4.5C19 3.83696 18.7366 3.20107 18.2678 2.73223C17.7989 2.26339 17.163 2 16.5 2C13 2 12 7 12 7ZM21.4 7H2.6C2.44087 7 2.28826 7.06321 2.17574 7.17574C2.06321 7.28826 2 7.44087 2 7.6V11.4C2 11.5591 2.06321 11.7117 2.17574 11.8243C2.28826 11.9368 2.44087 12 2.6 12H21.4C21.5591 12 21.7117 11.9368 21.8243 11.8243C21.9368 11.7117 22 11.5591 22 11.4V7.6C22 7.44087 21.9368 7.28826 21.8243 7.17574C21.7117 7.06321 21.5591 7 21.4 7Z" stroke="#536669" stroke-width="1.5" stroke-linecap="round" stroke-linejoin="round"/>
</svg>
