<svg width="32" height="32" viewBox="0 0 32 32" fill="none" xmlns="http://www.w3.org/2000/svg">
<path d="M5.33333 7.99935H8V23.9993H5.33333V7.99935ZM9.33333 7.99935H10.6667V23.9993H9.33333V7.99935ZM12 7.99935H16V23.9993H12V7.99935ZM17.3333 7.99935H18.6667V23.9993H17.3333V7.99935ZM21.3333 7.99935H24V23.9993H21.3333V7.99935ZM25.3333 7.99935H26.6667V23.9993H25.3333V7.99935ZM2.66667 5.33268V10.666H0V5.33268C0 4.62544 0.280952 3.94716 0.781049 3.44706C1.28115 2.94697 1.95942 2.66602 2.66667 2.66602H8V5.33268H2.66667ZM29.3333 2.66602C30.0406 2.66602 30.7189 2.94697 31.219 3.44706C31.719 3.94716 32 4.62544 32 5.33268V10.666H29.3333V5.33268H24V2.66602H29.3333ZM2.66667 21.3327V26.666H8V29.3327H2.66667C1.95942 29.3327 1.28115 29.0517 0.781049 28.5516C0.280952 28.0515 0 27.3733 0 26.666V21.3327H2.66667ZM29.3333 26.666V21.3327H32V26.666C32 27.3733 31.719 28.0515 31.219 28.5516C30.7189 29.0517 30.0406 29.3327 29.3333 29.3327H24V26.666H29.3333Z" fill="black"/>
</svg>
