<svg width="33" height="32" viewBox="0 0 33 32" fill="none" xmlns="http://www.w3.org/2000/svg">
<g clip-path="url(#clip0_4_955)">
<path d="M11.4427 15.6763C11.5666 15.8001 11.665 15.9472 11.7321 16.109C11.7992 16.2709 11.8337 16.4444 11.8337 16.6196C11.8337 16.7948 11.7992 16.9683 11.7321 17.1302C11.665 17.2921 11.5666 17.4391 11.4427 17.563L9.00666 20.0003H21.8333C22.187 20.0003 22.5261 20.1408 22.7761 20.3908C23.0262 20.6409 23.1667 20.98 23.1667 21.3336C23.1667 21.6872 23.0262 22.0264 22.7761 22.2764C22.5261 22.5265 22.187 22.667 21.8333 22.667H9.00666L11.444 25.1043C11.5679 25.2281 11.6662 25.3751 11.7332 25.5368C11.8003 25.6986 11.8349 25.872 11.8349 26.0472C11.835 26.2223 11.8006 26.3957 11.7336 26.5575C11.6666 26.7194 11.5685 26.8664 11.4447 26.9903C11.3209 27.1142 11.1739 27.2125 11.0121 27.2795C10.8503 27.3466 10.6769 27.3812 10.5018 27.3812C10.3267 27.3813 10.1532 27.3469 9.99142 27.2799C9.82959 27.2129 9.68254 27.1148 9.55866 26.991L4.844 22.2763C4.59403 22.0263 4.45361 21.6872 4.45361 21.3336C4.45361 20.9801 4.59403 20.641 4.844 20.391L9.55866 15.6763C9.8087 15.4263 10.1478 15.2859 10.5013 15.2859C10.8549 15.2859 11.194 15.4263 11.444 15.6763H11.4427ZM21.5573 5.00962C21.7869 4.78005 22.0924 4.64215 22.4164 4.62177C22.7405 4.6014 23.0608 4.69995 23.3173 4.89896L23.4427 5.00962L28.1573 9.72429C28.3869 9.95388 28.5248 10.2593 28.5452 10.5834C28.5656 10.9074 28.467 11.2278 28.268 11.4843L28.1573 11.6096L23.4427 16.323C23.2027 16.5621 22.8807 16.7009 22.5422 16.7113C22.2036 16.7216 21.8737 16.6027 21.6196 16.3786C21.3655 16.1546 21.2063 15.8422 21.1741 15.505C21.142 15.1678 21.2394 14.8309 21.4467 14.563L21.5573 14.4376L23.9933 12.0003H11.1667C10.8268 11.9999 10.5 11.8698 10.2528 11.6365C10.0057 11.4032 9.85702 11.0844 9.8371 10.7451C9.81718 10.4058 9.92756 10.0718 10.1457 9.81118C10.3638 9.55058 10.6732 9.38309 11.0107 9.34296L11.1667 9.33362H23.9947L21.5573 6.89362C21.3074 6.64359 21.1669 6.30451 21.1669 5.95096C21.1669 5.5974 21.3074 5.25966 21.5573 5.00962Z" fill="black"/>
</g>
<defs>
<clipPath id="clip0_4_955">
<rect width="32" height="32" fill="white" transform="translate(0.5)"/>
</clipPath>
</defs>
</svg>
