<svg width="23" height="23" viewBox="0 0 23 23" fill="none" xmlns="http://www.w3.org/2000/svg">
<g clip-path="url(#clip0_4_1031)">
<path d="M14.8542 13.4167H14.0971L13.8288 13.1579C14.7679 12.0654 15.3333 10.6471 15.3333 9.10417C15.3333 5.66375 12.5446 2.875 9.10417 2.875C5.66375 2.875 2.875 5.66375 2.875 9.10417C2.875 12.5446 5.66375 15.3333 9.10417 15.3333C10.6471 15.3333 12.0654 14.7679 13.1579 13.8288L13.4167 14.0971V14.8542L18.2083 19.6362L19.6362 18.2083L14.8542 13.4167ZM9.10417 13.4167C6.71792 13.4167 4.79167 11.4904 4.79167 9.10417C4.79167 6.71792 6.71792 4.79167 9.10417 4.79167C11.4904 4.79167 13.4167 6.71792 13.4167 9.10417C13.4167 11.4904 11.4904 13.4167 9.10417 13.4167Z" fill="#536669"/>
</g>
<defs>
<clipPath id="clip0_4_1031">
<rect width="23" height="23" fill="white"/>
</clipPath>
</defs>
</svg>
