<svg width="316" height="114" viewBox="0 0 316 114" fill="none" xmlns="http://www.w3.org/2000/svg">
<path d="M259.617 53.2252C259.617 41.342 251.395 33 239.892 33C225.241 33 215.395 43.7255 215.395 59.0475C215.395 70.9988 223.685 79.2727 235.391 79.2727C246.049 79.2727 254.001 74.0972 257.249 65.8233H245.407C243.816 68.411 240.501 70.0113 236.407 70.0113C230.113 70.0113 226.188 65.8233 225.816 59.8988H258.907C259.414 57.6175 259.617 55.6767 259.617 53.2252ZM226.764 51.8291C227.812 46.3813 233.091 42.023 239.452 42.023C244.967 42.023 249.128 46.0748 249.128 51.8291H226.764ZM183.59 78.1831L185.722 66.7767C192.218 68.0705 193.199 64.3932 194.891 55.5405L195.703 51.1482C198.072 38.7543 202.808 32.5914 216.41 34.2598L214.278 45.6663C207.782 44.3724 206.666 49.3095 205.211 56.9705L204.399 61.3629C202.03 73.8929 197.124 79.8515 183.59 78.1831ZM167.722 78.2172L175.74 34.0555H186.331L178.346 78.2172H167.722ZM107.123 34.0555H117.409L120.759 65.9936L134.191 34.0555H144.375L147.962 66.3L160.921 34.0555H171.139L152.53 78.2172H140.89L137.101 47.8454L124.244 78.2172H113.011L107.123 34.0555Z" fill="#375173"/>
<path d="M68.8221 45.7676L56.6415 57.4805H77.3485L79.5139 52.3731H69.0251L75.5891 45.7676L71.7657 39.1621H89.5629L73.1191 78.2163H79.2771L97.8863 34.0547H61.9536L68.8221 45.7676Z" fill="white"/>
</svg>
