<svg width="24" height="20" viewBox="0 0 24 20" fill="none" xmlns="http://www.w3.org/2000/svg">
<path d="M5.63065 3.72259C5.63065 3.72259 8.71775 2.48711 8.71775 5.4873C8.71775 8.48749 5.28764 7.42848 5.28764 7.42848M5.28764 7.42848H1M5.28764 7.42848V11.8402M5.28764 11.8402L1 11.8402M5.28764 11.8402C5.28764 11.8402 9.74678 11.8402 9.40377 14.6638C9.06076 17.4873 6.48818 16.9579 6.48818 16.9579M18.4337 16.4984C18.4337 16.4984 15.3683 17.7898 15.3168 14.7901C15.2653 11.7904 18.713 12.7869 18.713 12.7869M18.713 12.7869L23 12.709M18.713 12.7869L18.6373 8.37582M18.6373 8.37582L22.9243 8.2979M18.6373 8.37582C18.6373 8.37582 14.1788 8.45686 14.4733 5.62754C14.7678 2.79822 17.3491 3.28079 17.3491 3.28079M2.51678 19H21.4359C22.2736 19 22.9527 18.3013 22.9527 17.4393V2.56069C22.9527 1.69875 22.2736 1 21.4359 1L2.51678 1C1.67909 1 1 1.69875 1 2.56069L1 17.4393C1 18.3013 1.67909 19 2.51678 19Z" stroke="white" stroke-width="0.5"/>
</svg>
